<svg xmlns="http://www.w3.org/2000/svg" viewBox="0 0 1347 701"><defs><style>.cls-1,.cls-3{fill:#8995ef;}.cls-1{opacity:0.06;}.cls-2{fill:#d0b8ff;opacity:0.29;}.cls-3{opacity:0.27;}</style></defs><title>Asset 2</title><g id="Layer_2" data-name="Layer 2"><g id="Layer_1-2" data-name="Layer 1"><rect class="cls-1" width="1347" height="701"/><path class="cls-2" d="M1347,216a1748.69,1748.69,0,0,0-291-7c-105.8,6.26-111.33,16.25-244,28-97.91,8.67-227,19.48-389,3-44.25-4.5-105.49-10.95-185-30A1257.62,1257.62,0,0,1,0,127V701H1347Z"/><path class="cls-3" d="M1347,375c-202,50.08-360.43,45.92-465,34C662.21,384,560.15,310.93,343,312c-148.8.73-268.89,35.85-343,63V701H1347Z"/></g></g></svg>